<?xml version="1.0" encoding="UTF-8" standalone="no"?>
<svg width="32px" height="32px" viewBox="0 0 32 32" version="1.1" xmlns="http://www.w3.org/2000/svg" xmlns:xlink="http://www.w3.org/1999/xlink">
    <!-- Generator: Sketch 3.8.3 (29802) - http://www.bohemiancoding.com/sketch -->
    <title>toolbar-unsubscribe-loading</title>
    <desc>Created with Sketch.</desc>
    <defs></defs>
    <g id="Page-1" stroke="none" stroke-width="1" fill="none" fill-rule="evenodd">
        <g id="toolbar-unsubscribe-loading">
            <path d="M20.5,14 C22.4329966,14 24,12.4329966 24,10.5 C24,8.56700338 22.4329966,7 20.5,7 C18.5670034,7 17,8.56700338 17,10.5" id="Oval-4" stroke="#2F3337" stroke-width="1.5" transform="translate(20.500000, 10.500000) scale(1, -1) rotate(-90.000000) translate(-20.500000, -10.500000) "></path>
            <polygon id="Path-79" fill="#2F3337" points="20 5 20 9.36624031 23.7696399 7.27966828"></polygon>
            <polygon id="Bottom" fill="#2F3337" points="5 10 9.52415597 10 11.0069609 11.3215472 6.29917644 11.3215472 6.29917644 19.9530125 13.8736198 19.9530125 20.6805988 26.8965405 20.705801 20.1707002 22 21.3123818 22 28.8558677 20.7058014 28.8558677 13.2321256 21.3123818 5 21.3123818"></polygon>
        </g>
    </g>
</svg>