<?xml version="1.0" encoding="UTF-8" standalone="no"?>
<svg width="44px" height="44px" viewBox="0 0 44 44" version="1.1" xmlns="http://www.w3.org/2000/svg" xmlns:xlink="http://www.w3.org/1999/xlink">
    <!-- Generator: Sketch 3.8.3 (29802) - http://www.bohemiancoding.com/sketch -->
    <title>unsubscribe-loading</title>
    <desc>Created with Sketch.</desc>
    <defs></defs>
    <g id="Page-1" stroke="none" stroke-width="1" fill="none" fill-rule="evenodd">
        <g id="unsubscribe-loading">
            <polygon id="Bottom" fill="#2F3337" points="7.11043783 14.0908733 13.4463772 14.0908733 15.5229992 15.9416589 8.92989393 15.9416589 8.92989393 28.0297571 19.5376658 28.0297571 29.0706277 37.7539516 29.1059225 28.3346219 30.9184079 29.9335113 30.9184079 40.4979282 29.1059231 40.4979282 18.6392731 29.9335113 7.11043783 29.9335113"></polygon>
            <path d="M28,20 C30.7614237,20 33,17.7614237 33,15 C33,12.2385763 30.7614237,10 28,10 C25.2385763,10 23,12.2385763 23,15" id="Oval-4" stroke="#2F3337" stroke-width="2" transform="translate(28.000000, 15.000000) scale(1, -1) rotate(-90.000000) translate(-28.000000, -15.000000) "></path>
            <polygon id="Path-79" fill="#2F3337" points="28 7 28 13.3662403 33.4963611 10.3238931"></polygon>
        </g>
    </g>
</svg>